<svg width="120" height="120" viewBox="0 0 120 120" fill="none" xmlns="http://www.w3.org/2000/svg">
<g filter="url(#filter0_d_2802_494)">
<rect x="25" y="21" width="70" height="70" rx="6" fill="black"/>
</g>
<path d="M47.448 61.576C45.36 61.576 43.32 61.348 41.328 60.892C39.36 60.412 37.74 59.776 36.468 58.984L39.204 52.792C40.404 53.488 41.748 54.052 43.236 54.484C44.724 54.892 46.152 55.096 47.52 55.096C48.696 55.096 49.536 54.988 50.04 54.772C50.544 54.532 50.796 54.184 50.796 53.728C50.796 53.2 50.46 52.804 49.788 52.54C49.14 52.276 48.06 51.988 46.548 51.676C44.604 51.268 42.984 50.836 41.688 50.38C40.392 49.9 39.264 49.132 38.304 48.076C37.344 46.996 36.864 45.544 36.864 43.72C36.864 42.136 37.308 40.696 38.196 39.4C39.084 38.104 40.404 37.084 42.156 36.34C43.932 35.596 46.08 35.224 48.6 35.224C50.328 35.224 52.02 35.416 53.676 35.8C55.356 36.16 56.832 36.7 58.104 37.42L55.548 43.576C53.076 42.328 50.736 41.704 48.528 41.704C46.344 41.704 45.252 42.232 45.252 43.288C45.252 43.792 45.576 44.176 46.224 44.44C46.872 44.68 47.94 44.944 49.428 45.232C51.348 45.592 52.968 46.012 54.288 46.492C55.608 46.948 56.748 47.704 57.708 48.76C58.692 49.816 59.184 51.256 59.184 53.08C59.184 54.664 58.74 56.104 57.852 57.4C56.964 58.672 55.632 59.692 53.856 60.46C52.104 61.204 49.968 61.576 47.448 61.576Z" fill="#EABFEB"/>
<path d="M71.448 76.576C69.36 76.576 67.32 76.348 65.328 75.892C63.36 75.412 61.74 74.776 60.468 73.984L63.204 67.792C64.404 68.488 65.748 69.052 67.236 69.484C68.724 69.892 70.152 70.096 71.52 70.096C72.696 70.096 73.536 69.988 74.04 69.772C74.544 69.532 74.796 69.184 74.796 68.728C74.796 68.2 74.46 67.804 73.788 67.54C73.14 67.276 72.06 66.988 70.548 66.676C68.604 66.268 66.984 65.836 65.688 65.38C64.392 64.9 63.264 64.132 62.304 63.076C61.344 61.996 60.864 60.544 60.864 58.72C60.864 57.136 61.308 55.696 62.196 54.4C63.084 53.104 64.404 52.084 66.156 51.34C67.932 50.596 70.08 50.224 72.6 50.224C74.328 50.224 76.02 50.416 77.676 50.8C79.356 51.16 80.832 51.7 82.104 52.42L79.548 58.576C77.076 57.328 74.736 56.704 72.528 56.704C70.344 56.704 69.252 57.232 69.252 58.288C69.252 58.792 69.576 59.176 70.224 59.44C70.872 59.68 71.94 59.944 73.428 60.232C75.348 60.592 76.968 61.012 78.288 61.492C79.608 61.948 80.748 62.704 81.708 63.76C82.692 64.816 83.184 66.256 83.184 68.08C83.184 69.664 82.74 71.104 81.852 72.4C80.964 73.672 79.632 74.692 77.856 75.46C76.104 76.204 73.968 76.576 71.448 76.576Z" fill="#9391FA"/>
<defs>
<filter id="filter0_d_2802_494" x="0" y="0" width="120" height="120" filterUnits="userSpaceOnUse" color-interpolation-filters="sRGB">
<feFlood flood-opacity="0" result="BackgroundImageFix"/>
<feColorMatrix in="SourceAlpha" type="matrix" values="0 0 0 0 0 0 0 0 0 0 0 0 0 0 0 0 0 0 127 0" result="hardAlpha"/>
<feOffset dy="4"/>
<feGaussianBlur stdDeviation="12.5"/>
<feColorMatrix type="matrix" values="0 0 0 0 0 0 0 0 0 0 0 0 0 0 0 0 0 0 0.25 0"/>
<feBlend mode="normal" in2="BackgroundImageFix" result="effect1_dropShadow_2802_494"/>
<feBlend mode="normal" in="SourceGraphic" in2="effect1_dropShadow_2802_494" result="shape"/>
</filter>
</defs>
</svg>
